<svg width="100" height="100" viewBox="0 0 100 100" fill="none" xmlns="http://www.w3.org/2000/svg">
<path d="M20 18.3333C20 16.4924 21.4924 15 23.3333 15H76.6667C78.5076 15 80 16.4924 80 18.3333V86.6667C80 88.5076 78.5076 90 76.6667 90H23.3333C21.4924 90 20 88.5076 20 86.6667V18.3333Z" fill="white"/>
<path d="M20 18.3333C20 16.4924 21.4924 15 23.3333 15H50V60.5882C50 76.8319 36.8319 90 20.5882 90C20.2634 90 20 89.7366 20 89.4118V18.3333Z" fill="#DFD5C5"/>
<path fill-rule="evenodd" clip-rule="evenodd" d="M18.3334 18.3334C18.3334 15.5719 20.572 13.3334 23.3334 13.3334H76.6667C79.4281 13.3334 81.6667 15.5719 81.6667 18.3334V86.6667C81.6667 89.4281 79.4281 91.6667 76.6667 91.6667H23.3334C20.572 91.6667 18.3334 89.4281 18.3334 86.6667V18.3334ZM23.3334 16.6667C22.4129 16.6667 21.6667 17.4129 21.6667 18.3334V86.6667C21.6667 87.5872 22.4129 88.3334 23.3334 88.3334H76.6667C77.5872 88.3334 78.3334 87.5872 78.3334 86.6667V18.3334C78.3334 17.4129 77.5872 16.6667 76.6667 16.6667H23.3334Z" fill="#333333"/>
<path d="M66.6667 25C66.6667 34.2048 59.2048 41.6667 50 41.6667C40.7953 41.6667 33.3334 34.2048 33.3334 25C33.3334 15.7953 40.7953 8.33337 50 8.33337C59.2048 8.33337 66.6667 15.7953 66.6667 25Z" fill="white"/>
<path fill-rule="evenodd" clip-rule="evenodd" d="M50.0001 10C41.7158 10 35.0001 16.7157 35.0001 25C35.0001 33.2843 41.7158 40 50.0001 40C58.2844 40 65.0001 33.2843 65.0001 25C65.0001 16.7157 58.2844 10 50.0001 10ZM31.6667 25C31.6667 14.8748 39.8749 6.66669 50.0001 6.66669C60.1253 6.66669 68.3334 14.8748 68.3334 25C68.3334 35.1252 60.1253 43.3334 50.0001 43.3334C39.8749 43.3334 31.6667 35.1252 31.6667 25Z" fill="#333333"/>
<path d="M58.3334 25C58.3334 34.2048 54.6025 41.6667 50.0001 41.6667C45.3977 41.6667 41.6667 34.2048 41.6667 25C41.6667 15.7953 45.3977 8.33337 50.0001 8.33337C54.6025 8.33337 58.3334 15.7953 58.3334 25Z" fill="white"/>
<path fill-rule="evenodd" clip-rule="evenodd" d="M45.5982 13.9603C44.2286 16.6995 43.3333 20.6003 43.3333 25C43.3333 29.3998 44.2286 33.3006 45.5982 36.0398C47.0176 38.8787 48.6702 40 50 40C51.3298 40 52.9824 38.8787 54.4018 36.0398C55.7714 33.3006 56.6667 29.3998 56.6667 25C56.6667 20.6003 55.7714 16.6995 54.4018 13.9603C52.9824 11.1214 51.3298 10 50 10C48.6702 10 47.0176 11.1214 45.5982 13.9603ZM42.6167 12.4696C44.2134 9.2763 46.7274 6.66669 50 6.66669C53.2726 6.66669 55.7866 9.2763 57.3833 12.4696C59.0297 15.7625 60 20.195 60 25C60 29.805 59.0297 34.2375 57.3833 37.5305C55.7866 40.7237 53.2726 43.3334 50 43.3334C46.7274 43.3334 44.2134 40.7237 42.6167 37.5305C40.9703 34.2375 40 29.805 40 25C40 20.195 40.9703 15.7625 42.6167 12.4696Z" fill="#333333"/>
<path fill-rule="evenodd" clip-rule="evenodd" d="M50 6.66669C50.9205 6.66669 51.6667 7.41288 51.6667 8.33335V41.6667C51.6667 42.5872 50.9205 43.3334 50 43.3334C49.0796 43.3334 48.3334 42.5872 48.3334 41.6667V8.33335C48.3334 7.41288 49.0796 6.66669 50 6.66669Z" fill="#333333"/>
<path fill-rule="evenodd" clip-rule="evenodd" d="M31.6667 25C31.6667 24.0796 32.4129 23.3334 33.3334 23.3334H66.6668C67.5872 23.3334 68.3334 24.0796 68.3334 25C68.3334 25.9205 67.5872 26.6667 66.6668 26.6667H33.3334C32.4129 26.6667 31.6667 25.9205 31.6667 25Z" fill="#333333"/>
<path fill-rule="evenodd" clip-rule="evenodd" d="M33.3334 70C33.3334 69.0796 34.0796 68.3334 35 68.3334H65C65.9205 68.3334 66.6667 69.0796 66.6667 70C66.6667 70.9205 65.9205 71.6667 65 71.6667H35C34.0796 71.6667 33.3334 70.9205 33.3334 70Z" fill="#333333"/>
<path fill-rule="evenodd" clip-rule="evenodd" d="M33.3334 63.3334C33.3334 62.4129 34.0796 61.6667 35 61.6667H65C65.9205 61.6667 66.6667 62.4129 66.6667 63.3334C66.6667 64.2538 65.9205 65 65 65H35C34.0796 65 33.3334 64.2538 33.3334 63.3334Z" fill="#333333"/>
<path fill-rule="evenodd" clip-rule="evenodd" d="M41.6667 76.6667C41.6667 75.7462 42.4129 75 43.3334 75H56.6667C57.5872 75 58.3334 75.7462 58.3334 76.6667C58.3334 77.5871 57.5872 78.3333 56.6667 78.3333H43.3334C42.4129 78.3333 41.6667 77.5871 41.6667 76.6667Z" fill="#333333"/>
</svg>
