<svg width="80" height="80" viewBox="0 0 80 80" fill="none" xmlns="http://www.w3.org/2000/svg">
<path fill-rule="evenodd" clip-rule="evenodd" d="M45.3333 17.3334L28 24V65.3334L45.3333 58.6667V17.3334Z" fill="#DFD5C5"/>
<path fill-rule="evenodd" clip-rule="evenodd" d="M10.6666 17.3334L28 24V65.3334L10.6666 58.6667V17.3334Z" stroke="#333333" stroke-width="2" stroke-linecap="round" stroke-linejoin="round"/>
<path d="M62.6667 37.3334V65.3334L45.3334 58.6667V17.3334L50.6821 19.3906" stroke="#333333" stroke-width="2" stroke-linecap="round" stroke-linejoin="round"/>
<path fill-rule="evenodd" clip-rule="evenodd" d="M45.3334 17.3334L28 24V65.3334L45.3334 58.6667V17.3334Z" stroke="#333333" stroke-width="2" stroke-linecap="round" stroke-linejoin="round"/>
<path fill-rule="evenodd" clip-rule="evenodd" d="M67.7372 24.3285C68.7324 23.1638 69.3333 21.6521 69.3333 20C69.3333 16.3181 66.3486 13.3334 62.6667 13.3334C58.9848 13.3334 56 16.3181 56 20C56 21.6521 56.6009 23.1637 57.596 24.3284L62.6667 30.6667L67.7372 24.3285Z" fill="#DFD5C5"/>
<path d="M67.7372 24.3285L66.977 23.6789C66.97 23.6871 66.9631 23.6954 66.9564 23.7038L67.7372 24.3285ZM57.596 24.3284L58.3769 23.7037C58.3702 23.6953 58.3633 23.687 58.3563 23.6788L57.596 24.3284ZM62.6667 30.6667L61.8858 31.2914C62.0756 31.5286 62.3629 31.6667 62.6667 31.6667C62.9704 31.6667 63.2578 31.5286 63.4475 31.2914L62.6667 30.6667ZM68.3333 20C68.3333 21.4051 67.8233 22.6884 66.977 23.6789L68.4975 24.9781C69.6416 23.6392 70.3333 21.8991 70.3333 20H68.3333ZM62.6667 14.3334C65.7963 14.3334 68.3333 16.8704 68.3333 20H70.3333C70.3333 15.7659 66.9009 12.3334 62.6667 12.3334V14.3334ZM57 20C57 16.8704 59.5371 14.3334 62.6667 14.3334V12.3334C58.4325 12.3334 55 15.7659 55 20H57ZM58.3563 23.6788C57.51 22.6884 57 21.405 57 20H55C55 21.8991 55.6917 23.6391 56.8357 24.978L58.3563 23.6788ZM63.4475 30.042L58.3769 23.7037L56.8152 24.9531L61.8858 31.2914L63.4475 30.042ZM66.9564 23.7038L61.8858 30.042L63.4475 31.2914L68.5181 24.9532L66.9564 23.7038Z" fill="#333333"/>
<path d="M16 48V54.6667" stroke="#333333" stroke-width="2" stroke-linecap="round" stroke-linejoin="round"/>
<path d="M16 42.6667V41.3334" stroke="#333333" stroke-width="2" stroke-linecap="round" stroke-linejoin="round"/>
<path d="M45.3333 17.3334L28 24" stroke="#333333" stroke-width="2" stroke-linecap="round" stroke-linejoin="round"/>
</svg>
