<svg width="100" height="100" viewBox="0 0 100 100" fill="none" xmlns="http://www.w3.org/2000/svg">
<path fill-rule="evenodd" clip-rule="evenodd" d="M68.3333 73.3333L76.6667 73.3333L90 90H10L23.3333 73.3333L31.6667 73.3333" fill="white"/>
<path d="M68.3333 73.3333L76.6667 73.3333L90 90H10L23.3333 73.3333L31.6667 73.3333" stroke="#333333" stroke-width="2" stroke-linecap="round" stroke-linejoin="round"/>
<path fill-rule="evenodd" clip-rule="evenodd" d="M50 11.6667C65.6481 11.6667 78.3333 24.3519 78.3333 40C78.3333 46.9748 75.8131 53.361 71.6335 58.2976L71.6667 58.3333L50 80" fill="#DFD5C5"/>
<path fill-rule="evenodd" clip-rule="evenodd" d="M50 11.6667C34.3519 11.6667 21.6667 24.2097 21.6667 39.6824C21.6667 46.579 24.1869 52.8937 28.3665 57.7749L28.3333 57.8102L50 80.882" fill="white"/>
<path fill-rule="evenodd" clip-rule="evenodd" d="M50 13.3333C35.2724 13.3333 23.3333 25.2724 23.3333 40C23.3333 46.5659 25.7042 52.5738 29.6385 57.2207C29.7104 57.3056 29.7725 57.3959 29.8247 57.49L47.5574 76.5868C48.8761 78.007 51.1239 78.007 52.4426 76.5868L70.1753 57.49C70.2275 57.3959 70.2896 57.3056 70.3615 57.2207C74.2958 52.5738 76.6667 46.5659 76.6667 40C76.6667 25.2724 64.7276 13.3333 50 13.3333ZM20 40C20 23.4315 33.4315 10 50 10C66.5685 10 80 23.4315 80 40C80 47.2382 77.4346 53.8813 73.1652 59.0637C73.0948 59.2079 73.0024 59.3442 72.888 59.4674L54.8853 78.8549C52.2477 81.6954 47.7523 81.6954 45.1147 78.8549L27.112 59.4674C26.9976 59.3442 26.9052 59.2079 26.8348 59.0637C22.5655 53.8813 20 47.2382 20 40Z" fill="#333333"/>
<circle cx="50" cy="40" r="10" fill="white" stroke="#333333" stroke-width="2" stroke-linecap="round" stroke-linejoin="round"/>
<path d="M25 83.3333H26.6667" stroke="#333333" stroke-width="2" stroke-linecap="round" stroke-linejoin="round"/>
<path d="M33.3334 83.3333H40" stroke="#333333" stroke-width="2" stroke-linecap="round" stroke-linejoin="round"/>
</svg>
